<?xml version="1.0" encoding="utf-8"?>
<!DOCTYPE svg PUBLIC "-//W3C//DTD SVG 1.1//EN" "http://www.w3.org/Graphics/SVG/1.1/DTD/svg11.dtd">
<svg version="1.1" id="Layer_1" xmlns="http://www.w3.org/2000/svg" xmlns:xlink="http://www.w3.org/1999/xlink" x="0px" y="0px"
	 viewBox="0 0 21 21" enable-background="new 0 0 21 21" xml:space="preserve">
<g>
	<g>
		<path fill="#333333" d="M17.8,9.7c-1.5,1.5-2.9,2.9-4.3,4.3c0.1,0.4,0.3,0.9,0.4,1.3c0.2,1.8-1.1,3.6-2.9,3.8
			c-2,0.3-3.6-1.1-3.9-2.9C6.8,14.5,8,12.6,10,12.3c0.6-0.1,1.2,0,1.7,0.2c0.4,0.2,0.7,0.1,1-0.2c2-2.1,4.1-4.1,6.1-6.1
			c0.1-0.2,0.3-0.3,0.5-0.5c0.4,0.4,0.8,0.9,1.2,1.3c-0.3,0.3-0.7,0.6-1,0.9c-0.4,0.3-0.4,0.4-0.1,0.8c0.8,1.3,1.3,2.7,1.4,4.3
			c0,0.3,0.1,0.6,0.1,1c-0.6,0-1.1,0-1.6,0c0,0-0.1-0.1-0.1-0.2c0-0.7-0.1-1.5-0.4-2.2C18.5,10.9,18.2,10.3,17.8,9.7z M8.7,15.7
			c0,1,0.7,1.7,1.7,1.7s1.7-0.7,1.8-1.6c0-1-0.8-1.8-1.7-1.8C9.5,14,8.7,14.7,8.7,15.7z"/>
		<path fill="#333333" d="M0.1,14C0,10.5,2,6.5,6,4.6c3.8-1.8,7.9-1,10.6,1.1c-0.2,0.2-0.4,0.4-0.6,0.6c-0.1,0.1-0.3,0.3-0.4,0.4
			c-0.1,0.1-0.2,0.1-0.3,0c-1-0.6-2.1-1.1-3.2-1.3C9.4,5,7,5.7,4.9,7.4c-1.8,1.4-2.8,3.3-3.1,5.5c0,0.3,0,0.7-0.1,1
			c0,0.1-0.1,0.2-0.1,0.2C1.1,14,0.6,14,0.1,14z"/>
	</g>
</g>
</svg>