<?xml version="1.0" encoding="utf-8"?>
<!DOCTYPE svg PUBLIC "-//W3C//DTD SVG 1.1//EN" "http://www.w3.org/Graphics/SVG/1.1/DTD/svg11.dtd">
<svg version="1.1" id="Capa_1" xmlns="http://www.w3.org/2000/svg" xmlns:xlink="http://www.w3.org/1999/xlink" x="0px" y="0px"
	 viewBox="0 0 314.1 314.1" enable-background="new 0 0 314.1 314.1" xml:space="preserve">
<g>
	<g id="_x34_93._Back">
		<g>
			<path d="M21.1,235.5c43.4,75.1,139.4,100.8,214.5,57.5c75.1-43.3,100.8-139.4,57.5-214.5C249.7,3.4,153.6-22.3,78.5,21.1
				C3.4,64.4-22.3,160.4,21.1,235.5z M94.2,48.3c60.1-34.7,136.9-14.1,171.6,46c34.7,60.1,14.1,136.9-46,171.6
				c-60.1,34.7-136.9,14.1-171.6-46C13.6,159.8,34.2,83,94.2,48.3z M102.1,172.7h65.5L150,190.3c-6.1,6.1-6.1,16.1,0,22.2
				c6.1,6.1,16.1,6.1,22.2,0l44.4-44.4c6.1-6.1,6.1-16.1,0-22.2l-44.4-44.4c-6.1-6.1-16.1-6.1-22.2,0c-6.1,6.1-6.1,16.1,0,22.2
				l17.6,17.6h-65.5c-8.7,0-15.7,7-15.7,15.7v0C86.4,165.7,93.4,172.7,102.1,172.7z"/>
		</g>
	</g>
</g>
</svg>