<?xml version="1.0" encoding="utf-8"?>
<!DOCTYPE svg PUBLIC "-//W3C//DTD SVG 1.1//EN" "http://www.w3.org/Graphics/SVG/1.1/DTD/svg11.dtd">
<svg version="1.1" id="Capa_1" xmlns="http://www.w3.org/2000/svg" xmlns:xlink="http://www.w3.org/1999/xlink" x="0px" y="0px"
	 viewBox="0 0 21 21" enable-background="new 0 0 21 21" xml:space="preserve">
<g>
	<g id="_x34_93._Back">
		<g>
			<path d="M15.8,1.4c-5-2.9-11.4-1.2-14.3,3.8c-2.9,5-1.2,11.4,3.8,14.3s11.4,1.2,14.3-3.8S20.8,4.3,15.8,1.4z M17.8,14.7
				c-2.3,4-7.5,5.4-11.5,3.1S0.9,10.3,3.2,6.3s7.5-5.4,11.5-3.1C18.7,5.5,20.1,10.7,17.8,14.7z M15.2,10.5L15.2,10.5
				c0-0.6-0.5-1-1-1H9.8L11,8.3c0.4-0.4,0.4-1.1,0-1.5c-0.4-0.4-1.1-0.4-1.5,0l-3,3c-0.4,0.4-0.4,1.1,0,1.5l3,3
				c0.4,0.4,1.1,0.4,1.5,0c0.4-0.4,0.4-1.1,0-1.5l-1.2-1.2h4.4C14.8,11.5,15.2,11.1,15.2,10.5z"/>
		</g>
	</g>
</g>
</svg>