<?xml version="1.0" encoding="utf-8"?>
<!DOCTYPE svg PUBLIC "-//W3C//DTD SVG 1.1//EN" "http://www.w3.org/Graphics/SVG/1.1/DTD/svg11.dtd">
<svg version="1.1" id="Layer_1" xmlns="http://www.w3.org/2000/svg" xmlns:xlink="http://www.w3.org/1999/xlink" x="0px" y="0px"
	 viewBox="0 0 21 21" enable-background="new 0 0 21 21" xml:space="preserve">
<g>
	<g>
		<path fill="#333333" d="M11.9,0.1c0.2,0.1,0.4,0.1,0.6,0.2c0.9,0.1,1.6,0.4,2.3,0.9c1.9,1.5,3.7,3.2,5.1,5.1
			c0.5,0.7,0.8,1.4,0.9,2.2c0,0.2,0.1,0.5,0.1,0.7c0.1,0.3,0,0.5-0.2,0.7l0,0c-0.8,0.8-0.8,0.8-1.9,1c-0.5,0.1-1,0.2-1.5,0.2
			c-0.1,0-0.2,0-0.3,0c-0.4-0.1-0.8-0.3-1.2-0.4c-0.2-0.1-0.3-0.2-0.4-0.4c-0.4-0.8-0.9-1.6-1.5-2.4c-0.7-0.9-1.7-1.5-2.7-2
			c-0.3-0.2-0.7-0.3-0.8-0.6C10.1,4.8,9.9,4.2,10,3.6c0.1-0.7,0.2-1.4,0.3-2.1c0-0.3,0.2-0.5,0.4-0.7s0.5-0.4,0.7-0.7
			C11.6,0.1,11.8,0.1,11.9,0.1z M19.6,8.5c0-0.1-0.1-0.2-0.1-0.3c-1.3-2.4-3-4.4-5.3-5.9c-0.5-0.3-0.9-0.6-1.4-0.8
			c-0.3-0.1-0.5-0.1-0.7,0.1S11.8,2,11.9,2.3c0.1,0.2,0.2,0.3,0.4,0.5c2.3,1.2,4.1,3,5.5,5.2c0.2,0.3,0.4,0.7,0.6,1s0.4,0.3,0.7,0.3
			C19.4,9.1,19.6,8.9,19.6,8.5z"/>
		<path fill="#333333" d="M15.7,12.2c0.2,0.1,0.5,0.2,0.7,0.2c0.4,0,0.8,0,1.3-0.1c0.7-0.1,1.3-0.2,2-0.3c-0.2,1.8-0.8,3.5-1.9,5
			c-1.6,2.3-4,3.4-6.7,3.8c-5.2,0.8-10.6-3.4-10.9-9C-0.1,6.1,4.2,1.9,9,1.5C9,1.7,9,2,8.9,2.2c-0.1,0.7-0.2,1.4-0.3,2
			c0,0.2,0,0.4,0.1,0.6c0,0.2,0.1,0.3,0.2,0.5C7,5.8,5.6,6.8,4.7,8.5c-0.6,1.1-0.8,2.3-0.6,3.6c0.5,2.8,2.6,4.7,5.5,4.9
			C12.4,17.2,15.2,15.1,15.7,12.2z"/>
		<path fill="#333333" d="M9.9,6.7c-2.5-0.1-4.5,2-4.5,4.5s2,4.5,4.5,4.5s4.5-2,4.5-4.5S12.4,6.7,9.9,6.7z M11.8,8
			c0.4-0.1,0.7,0.2,0.7,0.6c0,0.3-0.3,0.6-0.7,0.7c-0.3-0.1-0.6-0.3-0.6-0.7C11.2,8.3,11.4,8,11.8,8z M8,7.9c0.3,0,0.6,0.3,0.6,0.6
			c0,0.4-0.3,0.7-0.7,0.7C7.6,9.2,7.3,9,7.3,8.6C7.3,8.2,7.6,7.9,8,7.9z M6.7,11.8c-0.4,0-0.7-0.3-0.7-0.7c0-0.3,0.3-0.6,0.6-0.6
			c0.4,0,0.7,0.3,0.7,0.7C7.3,11.5,7.1,11.8,6.7,11.8z M8,14.4c-0.4,0-0.7-0.3-0.7-0.6c0-0.4,0.2-0.7,0.6-0.7s0.7,0.3,0.7,0.7
			C8.6,14.1,8.4,14.4,8,14.4z M8,11.2c0-1.1,0.8-2,1.9-2c1,0,1.9,0.9,1.9,2c0,1-0.8,1.9-1.9,1.9C8.9,13.1,8,12.3,8,11.2z M11.8,14.4
			c-0.3,0-0.6-0.3-0.6-0.6c0-0.4,0.3-0.7,0.7-0.7c0.3,0.1,0.6,0.3,0.6,0.7C12.5,14.1,12.2,14.4,11.8,14.4z M13.2,11.8
			c-0.4,0-0.7-0.3-0.7-0.7c0-0.3,0.3-0.6,0.6-0.6c0.4,0,0.7,0.3,0.7,0.7C13.8,11.5,13.6,11.8,13.2,11.8z"/>
	</g>
</g>
</svg>