<?xml version="1.0" encoding="utf-8"?>
<!DOCTYPE svg PUBLIC "-//W3C//DTD SVG 1.1//EN" "http://www.w3.org/Graphics/SVG/1.1/DTD/svg11.dtd">
<svg version="1.1" id="Layer_1" xmlns="http://www.w3.org/2000/svg" xmlns:xlink="http://www.w3.org/1999/xlink" x="0px" y="0px"
	 viewBox="0 0 21 21" enable-background="new 0 0 21 21" xml:space="preserve">
<g>
	<path fill="#333333" d="M18.4,13.1C18.5,13.1,18.5,13.1,18.4,13.1c0.6,0,1.1,0,1.6,0c0.1,0,0.1,0,0.2,0c0.2-0.1,0.3-0.2,0.2-0.4
		c0-0.1-0.1-0.2-0.2-0.3c0.3-0.1,0.3-0.3,0.3-0.5c0-0.3,0-0.6,0-0.8c0-0.1,0-0.3-0.2-0.3c-0.4-0.4-0.9-0.7-1.4-0.8
		c-0.2-0.1-0.3-0.1-0.4-0.3c0-0.1-0.2-0.1-0.3-0.2c-0.1,0-0.2,0-0.4,0c-0.7,0-1.3,0.1-2,0.1c-0.8,0-1.5-0.1-2.2-0.4
		c-0.6-0.3-1.3-0.6-1.9-0.8C10.9,8.1,10,7.9,9.1,7.9C8.3,7.8,7.4,8,6.5,8.1C5.2,8.4,4,8.8,2.8,9.3c-0.1,0-0.2,0-0.3,0
		C2.3,9.1,2.1,9,1.9,8.9C1.5,8.8,1.1,8.7,0.7,8.6C0.4,8.5,0.4,8.5,0.3,8.8c0,0.2,0,0.3,0.2,0.3c0.3,0.1,0.6,0.3,0.8,0.6
		C1.2,9.8,1,9.8,0.9,9.9c0.1,0.4,0.3,0.9,0.4,1.3c0.2,0.4,0.4,0.8,0.6,1.3C2,12.9,2.3,13,2.7,13c-0.5-1.2,0-2.1,0.6-2.6
		C4,9.9,5,10,5.6,10.5c0.4,0.3,0.6,0.7,0.8,1.2c0.1,0.6,0,1.1-0.3,1.6c3,0,5.9-0.1,8.9-0.1c-0.6-1.2-0.1-2.2,0.6-2.7
		s1.7-0.5,2.3,0.1C18.6,11.1,19,12.1,18.4,13.1z M4.5,10.4c-0.9,0-1.7,0.8-1.7,1.7s0.8,1.6,1.6,1.6c0.9,0,1.7-0.7,1.7-1.7
		C6.1,11.1,5.4,10.4,4.5,10.4z M16.7,10.4c-0.9,0-1.7,0.7-1.7,1.7c0,0.9,0.8,1.6,1.7,1.6s1.7-0.7,1.7-1.6
		C18.4,11.2,17.6,10.4,16.7,10.4z"/>
	<path fill="#333333" d="M18.4,13.1c0.5-1,0.2-2-0.5-2.6c-0.7-0.5-1.7-0.6-2.3-0.1c-0.7,0.5-1.2,1.4-0.6,2.7c-3,0-5.9,0.1-8.9,0.1
		c0.3-0.5,0.4-1,0.3-1.6c-0.1-0.5-0.4-0.9-0.8-1.2C5,10,4,9.9,3.3,10.4c-0.6,0.5-1.2,1.4-0.6,2.6c-0.4,0-0.7-0.1-0.8-0.5
		c-0.2-0.4-0.4-0.8-0.6-1.3C1.1,10.8,1,10.4,0.9,9.9C1,9.8,1.2,9.8,1.3,9.7C1.1,9.4,0.8,9.3,0.5,9.1C0.4,9.1,0.3,9,0.3,8.8
		c0.1-0.3,0.1-0.3,0.4-0.2C1.1,8.7,1.5,8.8,1.8,9c0.3,0,0.5,0.1,0.7,0.2c0.1,0.1,0.2,0.1,0.3,0C4,8.8,5.2,8.4,6.5,8.1
		C7.4,8,8.3,7.8,9.2,7.8s1.7,0.1,2.6,0.5c0.6,0.3,1.3,0.5,1.9,0.8c0.7,0.3,1.4,0.5,2.2,0.4c0.7,0,1.3-0.1,2-0.1c0.1,0,0.2,0,0.4,0
		c0.1,0,0.2,0.1,0.3,0.2c0.1,0.2,0.2,0.3,0.4,0.3c0.5,0.2,1,0.5,1.4,0.8c0.1,0.1,0.2,0.2,0.2,0.3c0,0.3,0,0.6,0,0.8s0,0.4-0.3,0.5
		c0.1,0.1,0.2,0.2,0.2,0.3c0.1,0.2,0,0.3-0.2,0.4c-0.1,0-0.1,0-0.2,0C19.5,13.1,19,13.1,18.4,13.1C18.5,13.1,18.5,13.1,18.4,13.1z"
		/>
	<path fill="#333333" d="M4.5,10.4c0.9,0,1.7,0.7,1.7,1.7c0,0.9-0.7,1.6-1.7,1.7c-0.9,0-1.6-0.8-1.6-1.6C2.8,11.2,3.5,10.4,4.5,10.4
		z"/>
	<path fill="#333333" d="M16.7,10.4c0.9,0,1.7,0.8,1.7,1.7s-0.8,1.6-1.7,1.6c-0.9,0-1.7-0.8-1.7-1.6C15,11.1,15.8,10.4,16.7,10.4z"
		/>
</g>
</svg>