<?xml version="1.0" encoding="utf-8"?>
<!-- Generator: Adobe Illustrator 17.1.0, SVG Export Plug-In . SVG Version: 6.00 Build 0)  -->
<!DOCTYPE svg PUBLIC "-//W3C//DTD SVG 1.1//EN" "http://www.w3.org/Graphics/SVG/1.1/DTD/svg11.dtd">
<svg version="1.1" id="Layer_1" xmlns="http://www.w3.org/2000/svg" xmlns:xlink="http://www.w3.org/1999/xlink" x="0px" y="0px"
	 viewBox="0 0 21 21" enable-background="new 0 0 21 21" xml:space="preserve">
<g>
	<path fill="#333333" d="M0.1,8.8V8.7c0.1-0.4,0.3-0.6,0.7-0.6c0.3,0,0.6,0,0.9,0c0.5,0,0.7,0.4,0.7,0.8c0,0.4,0,0.9,0,1.3
		c0,0.1,0,0.1,0,0.2c0.3,0,0.5,0,0.8,0c0-0.1,0-0.1,0-0.2c0-0.4,0-0.9,0-1.3C3.2,8.4,3.5,8,4.1,8c0.3,0,0.7,0,1,0
		c0.1,0,0.2-0.1,0.3-0.1c0.7-0.6,1.3-1.3,2-2c0.2-0.2,0.5-0.3,0.8-0.3c2.8,0,5.7,0,8.5,0c0.6,0,0.9,0.3,0.9,0.9c0,1.2,0,2.4,0,3.6
		c0,0.1,0,0.2,0,0.3c0.3,0,0.5,0,0.8,0c0-0.1,0-0.1,0-0.2c0-0.4,0-0.9,0-1.3c0-0.5,0.3-0.9,0.9-0.9c0.2,0,0.4,0,0.7,0
		c0.5,0,0.8,0.3,0.8,0.8c0,1.8,0,3.7,0,5.5c0,0.5-0.3,0.8-0.9,0.8c-0.2,0-0.4,0-0.6,0c-0.6,0-0.9-0.3-0.9-0.9c0-0.4,0-0.9,0-1.3
		c0-0.1,0-0.1,0-0.2c-0.3,0-0.5,0-0.8,0c0,0.2,0,0.4,0,0.7s-0.1,0.6-0.3,0.8c-1,1-2,2-3,3c-0.2,0.2-0.5,0.3-0.8,0.3
		c-1.8,0-3.5,0-5.3,0c-0.3,0-0.6-0.1-0.8-0.3c-0.6-0.7-1.3-1.3-1.9-1.9c-0.1-0.1-0.2-0.1-0.3-0.1c-0.3,0-0.7,0-1,0
		c-0.5,0-0.9-0.3-0.9-0.9c0-0.5,0-1,0-1.5c-0.3,0-0.5,0-0.8,0c0,0.4,0,0.7,0,1.1c0,0.2,0,0.4,0,0.6c0,0.4-0.3,0.7-0.7,0.7
		c-0.3,0-0.6,0-0.9,0c-0.4,0-0.6-0.3-0.7-0.6v-0.1C0.1,12.6,0.1,10.7,0.1,8.8z M9.3,15.8C9.3,15.8,9.4,15.8,9.3,15.8
		c1.2-1.5,2.4-3,3.7-4.6c-0.6,0-1.2,0-1.8,0c0.7-1.1,1.3-2.1,1.9-3.2C13,8,13,8,12.9,8c-0.6,0-1.1,0-1.7,0C11,8,11,8,10.9,8.2
		c-0.6,1.2-1.2,2.5-1.8,3.7C9,11.9,9,12,9,12.1c0.6,0,1.1,0,1.7,0C10.2,13.3,9.8,14.6,9.3,15.8z"/>
	<path fill="#333333" d="M10.5,4.8c0-0.3,0-0.5,0-0.8c-0.1,0-0.2,0-0.2,0c-0.5,0-1,0-1.4,0C8.4,4,8.1,3.8,8.1,3.3c0-0.3,0-0.7,0-1
		c0-0.4,0.3-0.7,0.8-0.7c1.9,0,3.7,0,5.6,0c0.4,0,0.7,0.3,0.8,0.7c0,0.3,0,0.6,0,0.9C15.3,3.7,15,4,14.5,4c-0.4,0-0.9,0-1.3,0
		c-0.1,0-0.1,0-0.2,0c0,0.3,0,0.5,0,0.8C12,4.8,11.3,4.8,10.5,4.8z"/>
</g>
</svg>
