<?xml version="1.0" encoding="utf-8"?>
<!-- Generator: Adobe Illustrator 17.1.0, SVG Export Plug-In . SVG Version: 6.00 Build 0)  -->
<!DOCTYPE svg PUBLIC "-//W3C//DTD SVG 1.1//EN" "http://www.w3.org/Graphics/SVG/1.1/DTD/svg11.dtd">
<svg version="1.1" id="Layer_1" xmlns="http://www.w3.org/2000/svg" xmlns:xlink="http://www.w3.org/1999/xlink" x="0px" y="0px"
	 viewBox="0 0 21 21" enable-background="new 0 0 21 21" xml:space="preserve">
<g>
	<path d="M10.5,0.5c5.6,0,10.1,4.6,10.1,10.2c0,5.6-4.5,10.1-10.2,10c-5.5,0-10-4.5-10-10.1C0.4,5,5,0.5,10.5,0.5z M10.5,19.4
		c4.8,0,8.8-3.9,8.8-8.8c0-4.8-3.9-8.7-8.7-8.8c-4.8,0-8.8,3.9-8.8,8.8C1.8,15.4,5.7,19.3,10.5,19.4z"/>
	<path d="M10.5,9.9c1.8,0,3.6,0,5.3,0c0.6,0,0.9,0.5,0.6,1c-0.1,0.2-0.3,0.3-0.5,0.3c0,0-0.1,0-0.1,0c-3.6,0-7.1,0-10.7,0
		c-0.5,0-0.8-0.4-0.7-0.9c0.1-0.3,0.3-0.4,0.7-0.4c1.5,0,3.1,0,4.6,0C10,9.9,10.3,9.9,10.5,9.9z"/>
	<path d="M10.5,5.9c1.8,0,3.6,0,5.4,0c0.3,0,0.5,0.1,0.6,0.3c0.1,0.2,0.1,0.5,0,0.7c-0.1,0.1-0.3,0.2-0.4,0.3c-0.1,0-0.2,0-0.3,0
		c-3.5,0-7,0-10.5,0c-0.2,0-0.4,0-0.6-0.2C4.5,6.9,4.4,6.6,4.5,6.3C4.6,6,4.8,5.9,5.1,5.9C6.9,5.9,8.7,5.9,10.5,5.9z"/>
	<path d="M10.5,15.3c-1.8,0-3.6,0-5.4,0c-0.5,0-0.8-0.5-0.6-1C4.6,14.1,4.8,14,5,14c0.1,0,0.1,0,0.2,0c3.5,0,7.1,0,10.6,0
		c0.5,0,0.7,0.3,0.7,0.7c0,0.3-0.3,0.6-0.6,0.6c-0.3,0-0.6,0-0.9,0C13.5,15.3,12,15.3,10.5,15.3z"/>
</g>
</svg>