<?xml version="1.0" encoding="utf-8"?>
<!DOCTYPE svg PUBLIC "-//W3C//DTD SVG 1.1//EN" "http://www.w3.org/Graphics/SVG/1.1/DTD/svg11.dtd">
<svg version="1.1" id="Layer_1" xmlns="http://www.w3.org/2000/svg" xmlns:xlink="http://www.w3.org/1999/xlink" x="0px" y="0px"
	 viewBox="0 0 21 21" enable-background="new 0 0 21 21" xml:space="preserve">
<g>
	<path fill="#333333" d="M0.1,11.6c0-0.3,0.1-0.6,0.1-0.9c0.7-4.1,3-7,7-8.3c3.7-1.2,7.1-0.5,10,2c1.9,1.6,3.1,3.7,3.5,6.2
		c0.4,2.4,0,4.6-1.2,6.8c-0.4,0.7-1.1,0.9-1.8,0.5c-0.5-0.3-1.1-0.6-1.6-0.9c-0.3-0.2-0.3-0.4-0.2-0.7c0.1-0.1,0.2-0.3,0.2-0.4
		c0.2-0.2,0.4-0.3,0.7-0.1c0.2,0.1,0.4,0.2,0.6,0.3c1.2-2,1.3-4.9,0.2-7.2c-0.2,0.1-0.3,0.2-0.5,0.3C17,9.3,16.7,9.3,16.6,9
		c-0.1-0.1-0.1-0.2-0.2-0.3c-0.2-0.3-0.1-0.5,0.2-0.7c0.2-0.1,0.3-0.2,0.5-0.3c-0.6-1.5-4-3.4-5.8-3.3c0,0.3,0,0.6,0,0.9
		c0,0.4-0.2,0.6-0.6,0.6c-0.1,0-0.2,0-0.3,0c-0.3,0-0.5-0.2-0.5-0.5s0-0.5,0-0.8c0-0.1,0-0.1,0-0.2C7.7,4.4,5.4,5.6,4,7.6
		c0.2,0.1,0.3,0.2,0.5,0.3c0.3,0.2,0.4,0.4,0.2,0.8C4.6,8.8,4.6,8.9,4.5,9C4.3,9.3,4.1,9.3,3.8,9.2C3.6,9.1,3.5,9,3.3,8.9
		c-1.1,2.4-1,4.8,0.2,7.2c0.2-0.1,0.4-0.2,0.6-0.3c0.3-0.2,0.6-0.1,0.8,0.2c0,0.1,0.1,0.2,0.1,0.3c0.1,0.2,0.1,0.4-0.1,0.6
		c-0.6,0.4-1.2,0.7-1.8,1s-1.3,0-1.6-0.6c-0.6-1.1-1-2.3-1.2-3.5c0-0.3-0.1-0.6-0.1-0.9C0.1,12.5,0.1,12,0.1,11.6z"/>
	<path fill="#333333" d="M8.9,12.3c0-0.7,0.3-1.2,0.9-1.5c0.6-0.3,1.2-0.2,1.7,0.2c0.1,0.1,0.2,0.2,0.4,0.2c1.4,0.1,2.8,0.3,4.2,0.4
		c0.3,0,0.7,0.1,1,0.1c0.4,0.1,0.6,0.3,0.6,0.6s-0.3,0.5-0.6,0.6c-0.9,0.1-1.9,0.2-2.8,0.2c-0.8,0.1-1.7,0.1-2.5,0.2
		c-0.1,0-0.2,0.1-0.2,0.1c-1,0.8-2.3,0.4-2.6-0.8C9,12.5,9,12.4,8.9,12.3z"/>
	<path fill="#333333" d="M10.6,17c0.7,0,1.5,0,2.2,0c0.6,0,0.9,0.3,0.9,1c0,0.2,0,0.4,0,0.5c0,0.5-0.3,0.9-0.9,0.9
		c-1.6,0-3.1,0-4.7,0c-0.4,0-0.8-0.3-0.8-0.7c0-0.3,0-0.7,0-1c0.1-0.4,0.4-0.7,1-0.7C9,17,9.8,17,10.6,17z"/>
</g>
</svg>