<?xml version="1.0" encoding="utf-8"?>
<!DOCTYPE svg PUBLIC "-//W3C//DTD SVG 1.1//EN" "http://www.w3.org/Graphics/SVG/1.1/DTD/svg11.dtd">
<svg version="1.1" id="Layer_1" xmlns="http://www.w3.org/2000/svg" xmlns:xlink="http://www.w3.org/1999/xlink" x="0px" y="0px"
	 viewBox="0 0 21 21" enable-background="new 0 0 21 21" xml:space="preserve">
<g>
	<path fill="#333333" d="M0.1,11.2c0-0.4,0-0.9,0-1.3c0-0.1,0-0.1,0-0.2c0.1-1.4,0.5-2.8,1.2-4.1C3,2.6,5.6,0.8,9,0.3
		c0.3-0.1,0.6-0.1,0.9-0.1c0.4,0,0.9,0,1.3,0c0.3,0,0.7,0.1,1,0.1c2.3,0.4,4.4,1.5,6,3.2c2.2,2.4,3.1,5.3,2.7,8.5
		c-0.3,2-1.1,3.9-2.5,5.4C16,20,13,21.2,9.5,20.9c-1.7-0.1-3.2-0.7-4.7-1.7c-2.5-1.7-4.1-4.1-4.6-7.1C0.2,11.8,0.2,11.5,0.1,11.2z
		 M2.7,9.3L2.7,9.3C3.5,9.2,4.3,9.1,5.1,9c1-0.2,1.8-0.6,2.7-1c1-0.5,2-0.7,3.1-0.7c0.9,0.1,1.7,0.3,2.5,0.7c1.2,0.6,2.5,1,3.9,1.2
		c0.4,0,0.8,0.1,1.1,0.1c-0.4-3.2-3.3-6.8-7.9-6.8C5.9,2.6,3,6.2,2.7,9.3z M8.9,18.4c0-0.1,0-0.1,0-0.2c0-1.2,0-2.3,0-3.5
		c0-1.4-1.1-2.5-2.6-2.5c-1.2,0-2.3,0-3.5,0c-0.1,0-0.1,0-0.2,0C3.3,15.2,5.9,17.9,8.9,18.4z M18.4,12.1c-0.1,0-0.1,0-0.2,0
		c-1.2,0-2.3,0-3.5,0c-1.3,0-2.6,1.3-2.6,2.6c0,1.2,0,2.3,0,3.5c0,0.1,0,0.1,0,0.2C15.5,17.7,17.9,15,18.4,12.1z M10.5,12.5
		c1.1,0,1.9-0.8,1.9-1.9s-0.8-1.9-1.9-1.9s-1.9,0.9-1.9,1.9S9.5,12.5,10.5,12.5z"/>
</g>
</svg>