<?xml version="1.0" encoding="utf-8"?>
<!DOCTYPE svg PUBLIC "-//W3C//DTD SVG 1.1//EN" "http://www.w3.org/Graphics/SVG/1.1/DTD/svg11.dtd">
<svg version="1.1" id="Layer_1" xmlns="http://www.w3.org/2000/svg" xmlns:xlink="http://www.w3.org/1999/xlink" x="0px" y="0px"
	 viewBox="0 0 21 21" enable-background="new 0 0 21 21" xml:space="preserve">
<g>
	<path fill="#333333" d="M4.5,4.7c-0.3,0-0.5,0-0.7,0c-0.3,0-0.4-0.1-0.3-0.4c0-0.2,0.1-0.4,0.2-0.7c0.1-0.3,0.2-0.4,0.5-0.4
		c0.3,0,0.7,0,1,0c0.2,0,0.4-0.1,0.5-0.3c0.2-0.4,0.5-0.8,0.8-1.2c0.5-0.8,1.1-1.1,2-1.1c1.9,0,3.8,0,5.7,0c0.9,0,1.5,0.4,2,1.1
		C16.5,2.1,16.7,2.5,17,3c0.1,0.2,0.3,0.3,0.5,0.3c0.3,0,0.6,0,0.9,0s0.4,0.1,0.5,0.4C19,3.9,19,4.1,19.1,4.4c0.1,0.2,0,0.4-0.3,0.4
		c-0.2,0-0.5,0-0.7,0c-0.1,0-0.1,0.2,0,0.3c0.4,0.6,0.6,1.4,0.5,2.1c-0.1,1.2-0.2,2.4-0.3,3.6c0,0.4-0.3,0.7-0.7,0.7
		c-0.4,0-0.8,0-1.2,0c-0.4,0-0.7-0.3-0.7-0.7c0-0.2,0-0.4,0-0.6c0-0.2-0.1-0.2-0.2-0.2c-0.1,0-0.1,0-0.2,0c-2.8,0-5.5,0-8.3,0
		c-0.4,0-0.4,0-0.4,0.4c0,0.2,0,0.4,0,0.5c-0.1,0.3-0.3,0.6-0.6,0.6c-0.4,0-0.9,0-1.3,0c-0.3,0-0.5-0.2-0.6-0.5c0-0.5-0.1-1-0.1-1.5
		C3.9,8.7,3.9,8,3.8,7.2C3.7,6.4,3.9,5.7,4.3,5c0-0.1,0.1-0.1,0.1-0.2C4.4,4.8,4.5,4.8,4.5,4.7z M16.7,5.5c-0.1-0.1-0.2-0.2-0.2-0.3
		c-0.2-0.5-0.5-0.5-0.9-0.5c-3,0-5.9,0-8.9,0c-0.1,0-0.2,0-0.3,0c-0.1,0-0.2,0-0.2,0.1C6,5,5.9,5.3,5.7,5.5c0.7,0,1.4,0,2.1,0
		c0,0.4,0,0.7,0,1.1c0,0.3,0,0.4-0.4,0.4C6.8,7,6.1,7,5.5,7C5.3,7,5.2,7,5.2,7.3s0.1,0.5,0.1,0.8c0,0.4,0.1,0.4,0.5,0.4
		c3.2,0,6.5,0,9.7,0c0.4,0,0.9,0,1.3,0c0.2,0,0.3-0.1,0.3-0.2c0-0.3,0.1-0.7,0.1-1s0-0.3-0.3-0.3c-0.7,0-1.4,0-2,0
		c-0.1,0-0.1,0-0.2,0c0-0.3,0-0.7,0-1c0-0.4,0-0.4,0.4-0.4C15.6,5.5,16.1,5.5,16.7,5.5z M7.1,3.2c2.8,0,5.5,0,8.2,0
		c-0.2-0.3-0.4-0.6-0.6-0.9c-0.1-0.2-0.3-0.2-0.5-0.2c-2,0-3.9,0-5.9,0c-0.2,0-0.4,0.1-0.5,0.2C7.5,2.5,7.3,2.9,7.1,3.2z"/>
	<path fill="#333333" d="M16.1,12.3c0.6,0,1.2,0,1.8,0c0.1,0,0.2,0,0.2,0c0.8,0.4,1.7,0.7,2.4,1.4c0.1,0.1,0.1,0.1,0.2,0.2
		c0.4,0.4,0.3,0.9-0.2,1.2c-0.7,0.5-1.5,0.9-2.3,1.2c-0.7,0.3-1.5,0.5-2.2,0.8c-0.3,0.1-0.6,0.3-0.8,0.4c-0.3,0.2-0.4,0.5-0.1,0.8
		c0.5,0.4,1,0.7,1.5,1.1c0.4,0.3,0.9,0.5,1.3,0.7c0.1,0,0.2,0.1,0.2,0.2c-0.2,0-0.3,0-0.5,0c-0.5,0-1,0-1.5,0
		c-0.4,0-0.8-0.1-1.2-0.3c-0.7-0.4-1.4-0.8-2.1-1.2c-0.3-0.2-0.6-0.5-0.9-0.8c-0.3-0.3-0.3-0.7,0.1-0.9c0.7-0.5,1.5-0.8,2.3-1
		c1-0.4,2-0.7,3-1.1c0.2-0.1,0.4-0.2,0.6-0.3c0.3-0.2,0.4-0.5,0.1-0.7c-0.4-0.4-0.8-0.7-1.2-1C16.7,12.7,16.4,12.5,16.1,12.3z"/>
	<path fill="#333333" d="M6.6,20.2c-0.1,0-0.2,0-0.2,0c-0.7,0-1.4,0-2.1,0c-0.2,0-0.4-0.1-0.5-0.1c-0.9-0.5-1.8-1-2.7-1.6
		c-0.3-0.2-0.5-0.4-0.7-0.6c-0.2-0.3-0.2-0.6,0.1-0.8c0.3-0.2,0.7-0.4,1.1-0.6c1.3-0.5,2.7-1,4.1-1.5c0.2-0.1,0.4-0.2,0.6-0.3
		c0.5-0.3,0.5-0.6,0.1-0.9c-0.4-0.4-0.9-0.7-1.3-1.1c-0.2-0.1-0.4-0.3-0.5-0.4c0.5,0,1,0,1.5,0c0.4,0,0.8,0.1,1.1,0.3
		c0.5,0.3,1.1,0.7,1.6,1c0.1,0.1,0.2,0.2,0.3,0.3c0.3,0.4,0.3,0.7,0,1.1c-0.4,0.4-0.9,0.7-1.4,0.9c-1,0.4-2.1,0.8-3.1,1.2
		c-0.3,0.1-0.7,0.3-1,0.5s-0.4,0.5-0.1,0.8c0.3,0.2,0.6,0.5,0.9,0.7c0.7,0.4,1.4,0.8,2.1,1.2C6.5,20.1,6.5,20.2,6.6,20.2z"/>
</g>
</svg>