<?xml version="1.0" encoding="utf-8"?>
<!DOCTYPE svg PUBLIC "-//W3C//DTD SVG 1.1//EN" "http://www.w3.org/Graphics/SVG/1.1/DTD/svg11.dtd">
<svg version="1.1" id="Layer_1" xmlns="http://www.w3.org/2000/svg" xmlns:xlink="http://www.w3.org/1999/xlink" x="0px" y="0px"
	 viewBox="0 0 21 21" enable-background="new 0 0 21 21" xml:space="preserve">
<g>
	<path fill="#333333" d="M0.5,12.8c0.4-1.2,1.1-2.3,1.7-3.5C2.3,9,2.5,8.8,2.6,8.5C2.9,8,3.4,7.6,4,7.6c2.3,0,4.7,0,7,0
		c0.6,0,1,0.3,1.3,0.7c0.6,0.9,1.1,1.8,1.7,2.6c0.1,0.1,0.2,0.2,0.3,0.2c1.1,0.3,2.3,0.5,3.4,0.8c0.6,0.1,0.9,0.5,0.9,1.1
		c0,0.7,0,1.5,0,2.2c0,0.4-0.2,0.7-0.7,0.7c-0.3,0-0.6,0-0.9,0s-0.7,0-1,0c-0.1,0-0.2,0-0.2,0.1c-0.1,0.9-0.9,1.5-1.8,1.5
		c-0.9,0-1.6-0.6-1.8-1.5c0-0.1-0.1-0.1-0.2-0.1c-0.8,0-1.7,0-2.5,0c-1.2,0-2.4,0-3.5,0c-0.2,0-0.2,0-0.2,0.2
		C5.7,17,4.9,17.6,4,17.6c-0.8,0-1.6-0.7-1.7-1.5C2.3,16,2.2,16,2.1,16c-0.3,0-0.5,0-0.8,0s-0.6-0.1-0.8-0.5
		C0.5,14.6,0.5,13.7,0.5,12.8z M8.1,11.2c1.5,0,3,0,4.5,0c-0.4-0.7-0.8-1.4-1.3-2c-0.2-0.3-0.6-0.5-1-0.5c-0.7,0-1.4,0-2.1,0
		c-0.1,0-0.1,0-0.2,0c0,0.1,0,0.1,0,0.1C8.1,9.6,8.1,10.4,8.1,11.2z M7,8.7c-0.1,0-0.2,0-0.2,0c-0.8,0-1.5,0-2.3,0
		c-0.4,0-0.7,0.2-0.9,0.6c-0.2,0.5-0.4,0.9-0.7,1.4c-0.1,0.2-0.2,0.3-0.2,0.5c0.1,0,0.2,0,0.2,0c0.8,0,1.6,0,2.4,0c0.5,0,1,0,1.5,0
		c0.1,0,0.2,0,0.2-0.1C7,10.3,7,9.5,7,8.7z M15,15.9c0-0.5-0.4-1-0.9-1s-1,0.4-1,0.9s0.4,1,0.9,1C14.6,16.8,15,16.4,15,15.9z
		 M5,15.9c0-0.5-0.4-1-0.9-1s-0.9,0.4-0.9,0.9s0.4,0.9,0.9,1C4.6,16.8,5,16.4,5,15.9z"/>
	<path fill="#333333" d="M17.8,6.7c-0.2-0.4-0.1-0.6,0.1-0.8c0.2-0.2,0.5-0.1,0.7,0c0.2,0.2,0.3,0.4,0.1,0.8c0.3,0,0.5,0,0.8,0
		c0.4,0,0.5,0.1,0.6,0.4c0.2,0.9,0.4,1.7,0.6,2.6c0.1,0.2,0,0.4-0.3,0.4c-1.3,0-2.7,0-4,0c-0.2,0-0.3-0.1-0.3-0.4
		c0.2-0.9,0.4-1.8,0.6-2.8c0-0.2,0.2-0.3,0.4-0.3C17.2,6.7,17.5,6.7,17.8,6.7z M18.2,6.6c0.1,0,0.3-0.1,0.3-0.3
		c0-0.1-0.1-0.3-0.3-0.3c-0.1,0-0.3,0.1-0.3,0.3C17.9,6.4,18,6.6,18.2,6.6z"/>
	<path fill="#333333" d="M14.5,6.8c-1-0.7-1.9-1.5-2.9-2.2c-0.1-0.1-0.2-0.1-0.2-0.2s0-0.2,0-0.3c0.2-0.1,0.3-0.4,0.5-0.4
		c0.1,0,0.2,0.1,0.2,0.1C13,4.8,13.8,5.8,14.5,6.8C14.5,6.8,14.6,6.8,14.5,6.8C14.6,6.8,14.6,6.8,14.5,6.8z"/>
	<path fill="#333333" d="M14.9,6.7c-0.1-0.3-0.3-0.6-0.4-1c-0.2-0.6-0.5-1.2-0.7-1.8c-0.1-0.3-0.1-0.3,0.2-0.4
		c0.5-0.1,0.5-0.1,0.6,0.4C14.7,4.8,14.8,5.8,14.9,6.7C15,6.7,15,6.7,14.9,6.7z"/>
	<path fill="#333333" d="M13.7,7.2c-0.3-0.1-0.6-0.3-0.9-0.4c-0.6-0.2-1.2-0.5-1.8-0.7c-0.3-0.1-0.3-0.2-0.2-0.5
		c0.2-0.4,0.3-0.4,0.7-0.1c0.7,0.5,1.3,1,2,1.5C13.6,7,13.7,7.1,13.7,7.2L13.7,7.2z"/>
</g>
</svg>